<svg width="673" height="100" viewBox="0 0 673 100" fill="none" xmlns="http://www.w3.org/2000/svg">
<path d="M62.8242 0C28.1261 0 0 28.4949 0 63.6445V90.9186C0 95.9358 4.01381 100 8.96858 100C13.9234 100 17.9666 95.9358 17.9666 90.9186V63.6445C17.9666 58.6125 21.9657 54.5482 26.9352 54.5482C31.8899 54.5482 35.9037 58.6125 35.9037 63.6445V90.9186C35.9037 95.9358 39.9175 100 44.8723 100C49.8418 100 53.8556 95.9358 53.8556 90.9186V63.6445C53.8556 58.6125 57.8694 54.5482 62.8242 54.5482C67.7937 54.5482 71.8222 58.6125 71.8222 63.6445V90.9186C71.8222 95.9358 75.836 100 80.7908 100C85.7455 100 89.7594 95.9358 89.7594 90.9186V63.6445C89.7594 58.6125 93.7732 54.5482 98.7573 54.5482C103.712 54.5482 107.726 58.6125 107.726 63.6445V90.9186C107.726 95.9358 111.74 100 116.709 100C121.664 100 125.678 95.9358 125.678 90.9186V63.6445C125.678 28.4949 97.537 0 62.8242 0Z" fill="#FFF"/>
<path d="M212.818 49.807C212.818 63.751 204.67 70.891 194.674 70.891H183.586V28.639H194.674C204.67 28.639 212.818 35.779 212.818 49.807Z" fill="#FFF"/>
<path d="M480.585 49.807C480.585 65.095 471.597 72.403 461.013 72.403C450.345 72.403 441.441 65.179 441.441 49.891V49.807C441.441 34.435 450.345 27.127 461.013 27.127C471.597 27.127 480.585 34.435 480.585 49.723V49.807Z" fill="#FFF"/>
<path d="M535.541 38.719C535.541 46.111 530.249 48.883 524.369 48.883H513.197V28.639H524.369C530.249 28.639 535.541 31.327 535.541 38.719Z" fill="#FFF"/>
<path d="M638.162 38.131C638.162 44.263 634.13 47.959 627.494 47.959H615.818V28.639H627.494C634.13 28.639 638.162 31.915 638.162 38.131Z" fill="#FFF"/>
<path fill-rule="evenodd" clip-rule="evenodd" d="M164.296 0C155.156 0 147.746 7.40969 147.746 16.55V83.45C147.746 92.5903 155.156 100 164.296 100H656.196C665.336 100 672.746 92.5903 672.746 83.45V16.55C672.746 7.40969 665.336 0 656.196 0H164.296ZM173.506 20.155V79.375H195.514C211.558 79.375 223.234 66.859 223.234 49.807C223.234 32.671 211.558 20.155 195.514 20.155H173.506ZM235.358 20.155V79.375H272.654V71.311H245.438V52.831H270.722V44.767H245.438V28.219H272.654V20.155H235.358ZM278.673 20.155L299.001 79.375H313.365L333.609 20.155H322.521L311.265 55.267C310.942 56.2878 310.615 57.312 310.288 58.3382C308.999 62.3791 307.7 66.4518 306.561 70.471H305.721C304.293 65.431 302.697 60.307 301.101 55.267L289.761 20.155H278.673ZM341.834 20.155V79.375H379.13V71.311H351.914V52.831H377.198V44.767H351.914V28.219H379.13V20.155H341.834ZM392.038 20.155V79.375H427.402V70.891H402.118V20.155H392.038ZM431.025 49.807C431.025 67.615 443.625 80.635 461.013 80.635C478.317 80.635 491.001 67.699 491.001 49.891V49.807C491.001 31.915 478.317 18.895 461.013 18.895C443.625 18.895 431.025 31.831 431.025 49.723V49.807ZM503.117 20.155V79.375H513.197V57.283H525.209C535.877 57.283 545.957 51.151 545.957 38.635C545.957 26.203 535.877 20.155 525.209 20.155H503.117ZM555.535 20.155V79.375H592.831V71.311H565.615V52.831H590.899V44.767H565.615V28.219H592.831V20.155H555.535ZM605.738 20.155V79.375H615.818V55.771H625.982C632.114 55.771 634.97 57.787 636.398 63.667L638.666 72.991C639.422 76.099 640.094 78.367 640.43 79.375H651.266C650.51 77.695 649.754 74.923 649.166 72.739L646.31 61.483C645.134 56.863 642.782 53.167 635.978 52.075V51.235C644.63 49.135 648.578 43.087 648.578 36.367C648.578 25.951 640.85 20.155 628.502 20.155H605.738Z" fill="#FFF"/>
</svg>
