<?xml version="1.0" encoding="UTF-8"?>
<svg width="118px" height="22px" viewBox="0 0 118 22" version="1.1" xmlns="http://www.w3.org/2000/svg" xmlns:xlink="http://www.w3.org/1999/xlink">
    <title>编组 90</title>
    <defs>
        <path d="M32.7113547,17.3928366 C36.4405592,17.3928366 39.2229708,14.4365243 39.2229708,10.6300306 C39.2229708,6.82353689 36.4405592,3.86722453 32.7113547,3.86722453 L27.3397545,3.86722453 L27.3397545,17.3928366 L32.7113547,17.3928366 Z M32.7113547,14.8422926 L30.0062323,14.8422926 L30.0062323,6.41776852 L32.7113547,6.41776852 C35.0493534,6.41776852 36.6724268,8.13745349 36.6724268,10.6300306 C36.6724268,13.1226077 35.0493534,14.8422926 32.7113547,14.8422926 Z M49.4831137,17.3928366 L49.4831137,14.8422926 L43.7830343,14.8422926 L43.7830343,11.808691 L48.9034446,11.808691 L48.9034446,9.29679166 L43.7830343,9.29679166 L43.7830343,6.41776852 L49.3865022,6.41776852 L49.3865022,3.86722453 L41.1165565,3.86722453 L41.1165565,17.3928366 L49.4831137,17.3928366 Z M59.7239343,17.3928366 L59.7239343,14.8422926 L54.0238549,14.8422926 L54.0238549,11.808691 L59.1442652,11.808691 L59.1442652,9.29679166 L54.0238549,9.29679166 L54.0238549,6.41776852 L59.6273228,6.41776852 L59.6273228,3.86722453 L51.3573771,3.86722453 L51.3573771,17.3928366 L59.7239343,17.3928366 Z M64.2646755,17.3928366 L64.2646755,12.9487069 L66.6413187,12.9487069 C69.2498296,12.9487069 71.2593491,10.9391874 71.2593491,8.40796573 C71.2593491,5.87674404 69.2498296,3.86722453 66.6413187,3.86722453 L61.5981977,3.86722453 L61.5981977,17.3928366 L64.2646755,17.3928366 Z M66.6413187,10.4561298 L64.2646755,10.4561298 L64.2646755,6.35980161 L66.6413187,6.35980161 C67.7813346,6.35980161 68.6121936,7.22930525 68.6121936,8.40796573 C68.6121936,9.56730391 67.7813346,10.4561298 66.6413187,10.4561298 Z M79.413361,17.6633488 C81.9059381,17.6633488 84.0893583,16.4073992 85.2293742,14.4751689 L82.9300201,13.14193 C82.2923841,14.3205904 80.9591452,15.0548379 79.413361,15.0548379 C76.7662055,15.0548379 75.0271982,13.2192192 75.0271982,10.6300306 C75.0271982,8.02151967 76.7662055,6.18590089 79.413361,6.18590089 C80.9591452,6.18590089 82.2730618,6.9201484 82.9300201,8.11813118 L85.2293742,6.78489228 C84.070036,4.85266198 81.8866158,3.59671229 79.413361,3.59671229 C75.3170328,3.59671229 72.3800427,6.66895846 72.3800427,10.6300306 C72.3800427,14.5717804 75.3170328,17.6633488 79.413361,17.6633488 Z M93.4220306,17.6633488 C97.3251358,17.6633488 100.455349,14.5717804 100.455349,10.6300306 C100.455349,6.66895846 97.3251358,3.59671229 93.4220306,3.59671229 C89.5189254,3.59671229 86.4080347,6.66895846 86.4080347,10.6300306 C86.4080347,14.5717804 89.5189254,17.6633488 93.4220306,17.6633488 Z M93.4220306,15.0548379 C90.9680982,15.0548379 89.0551902,13.2192192 89.0551902,10.6300306 C89.0551902,8.02151967 90.9680982,6.18590089 93.4220306,6.18590089 C95.8759631,6.18590089 97.7888711,8.02151967 97.7888711,10.6300306 C97.7888711,13.2192192 95.8759631,15.0548379 93.4220306,15.0548379 Z M104.99609,17.3928366 L104.99609,3.86722453 L102.329612,3.86722453 L102.329612,17.3928366 L104.99609,17.3928366 Z M110.174467,17.3928366 L110.174467,9.12289094 L115.971158,17.3928366 L118,17.3928366 L118,3.86722453 L115.333522,3.86722453 L115.333522,12.1178479 L109.536831,3.86722453 L107.507989,3.86722453 L107.507989,17.3928366 L110.174467,17.3928366 Z" id="path-1"></path>
    </defs>
    <g id="页面-1" stroke="none" stroke-width="1" fill="none" fill-rule="evenodd">
        <g id="WEB_Deepcoin-1" transform="translate(-201.000000, -16.000000)" fill-rule="nonzero">
            <g id="top" transform="translate(-206.293349, 0.000000)">
                <g id="编组-90" transform="translate(407.293349, 16.369969)">
                    <path d="M9.57660412,11.7001679 L9.57660412,21.2600611 L0,21.2600611 L0,11.7001679 L9.57660412,11.7001679 Z M11.5776856,11.7001679 L21.1542897,11.7002636 C20.8476203,16.8958538 16.7835314,20.9525899 11.5776856,21.2600611 L11.5776856,11.7001679 Z M9.57660412,0 L9.57660412,9.55989326 L0,9.55989326 L0,0 L9.57660412,0 Z M11.5776856,0 C16.783551,0.30747247 20.8476513,4.36424199 21.1542897,9.55989326 L11.5776856,9.55989326 L11.5776856,0 Z" id="形状结合" fill="#FE7701"></path>
                    <g id="DEEPCOIN">
                        <use fill="#FE7701" xlink:href="#path-1"></use>
                        <use fill="#EBEBEB" xlink:href="#path-1"></use>
                    </g>
                </g>
            </g>
        </g>
    </g>
</svg>